# xmcd CD database file
#
# Track frame offsets:
#	150
#	14621
#	29202
#	42756
#	57997
#	71206
#	89258
#	101505
#	113504
#	127060
#	140906
#	157857
#	174354
#	195625
#	212110
#	231924
#
# Disc length: 3272 seconds
#
# Revision: 0
# Processed by: cddbd v1.5.1PL2 Copyright (c) Steve Scherf et al.
# Submitted via: CDex 1.51
#
DISCID=e80cc610
DTITLE=David Ball - Amigo Amigo
DYEAR=2001
DGENRE=Country
TTITLE0=Amigo Amigo
TTITLE1=Echo
TTITLE2=Freeze
TTITLE3=Honky Tonk Healing
TTITLE4=I Got A Thinkin' Problem
TTITLE5=I'm Just A Country Boy
TTITLE6=I'll Follow The Sun
TTITLE7=Juke Box Junkie
TTITLE8=Linedance Smokin' Cigarettes
TTITLE9=Miss The Mississippi And You
TTITLE10=Missing The Blues
TTITLE11=Play
TTITLE12=Riding With Private Malone
TTITLE13=She Always Talks About Mexico
TTITLE14=The Bottle That Poors The Wine
TTITLE15=When The Thought Of You
EXTD=YEAR: 2001
EXTT0=
EXTT1=
EXTT2=
EXTT3=
EXTT4=
EXTT5=
EXTT6=
EXTT7=
EXTT8=
EXTT9=
EXTT10=
EXTT11=
EXTT12=
EXTT13=
EXTT14=
EXTT15=
PLAYORDER=
